<?xml version="1.0" encoding="utf-8" standalone="no"?>
<!DOCTYPE svg PUBLIC "-//W3C//DTD SVG 1.1//EN"
  "http://www.w3.org/Graphics/SVG/1.1/DTD/svg11.dtd">
<svg xmlns:xlink="http://www.w3.org/1999/xlink" width="460.8pt" height="345.6pt" viewBox="0 0 460.8 345.6" xmlns="http://www.w3.org/2000/svg" version="1.1">
 <metadata>
  <rdf:RDF xmlns:dc="http://purl.org/dc/elements/1.1/" xmlns:cc="http://creativecommons.org/ns#" xmlns:rdf="http://www.w3.org/1999/02/22-rdf-syntax-ns#">
   <cc:Work>
    <dc:type rdf:resource="http://purl.org/dc/dcmitype/StillImage"/>
    <dc:date>2024-11-25T22:02:02.660137</dc:date>
    <dc:format>image/svg+xml</dc:format>
    <dc:creator>
     <cc:Agent>
      <dc:title>Matplotlib v3.8.3, https://matplotlib.org/</dc:title>
     </cc:Agent>
    </dc:creator>
   </cc:Work>
  </rdf:RDF>
 </metadata>
 <defs>
  <style type="text/css">*{stroke-linejoin: round; stroke-linecap: butt}</style>
 </defs>
 <g id="figure_1">
  <g id="patch_1">
   <path d="M 0 345.6 
L 460.8 345.6 
L 460.8 0 
L 0 0 
z
" style="fill: #ffffff"/>
  </g>
  <g id="axes_1">
   <g id="patch_2">
    <path d="M 51.05 303.64 
L 450 303.64 
L 450 37.968 
L 51.05 37.968 
z
" style="fill: #ffffff"/>
   </g>
   <g id="PathCollection_1">
    <defs>
     <path id="m72524fc5e4" d="M -3 3 
L 3 -3 
M -3 -3 
L 3 3 
" style="stroke: #1f77b4; stroke-width: 1.5"/>
    </defs>
    <g clip-path="url(#pb4f8f3f5cf)">
     <use xlink:href="#m72524fc5e4" x="69.184091" y="288.347053" style="fill: #1f77b4; stroke: #1f77b4; stroke-width: 1.5"/>
     <use xlink:href="#m72524fc5e4" x="120.995779" y="288.211618" style="fill: #1f77b4; stroke: #1f77b4; stroke-width: 1.5"/>
     <use xlink:href="#m72524fc5e4" x="172.807468" y="288.122119" style="fill: #1f77b4; stroke: #1f77b4; stroke-width: 1.5"/>
     <use xlink:href="#m72524fc5e4" x="224.619156" y="288.062732" style="fill: #1f77b4; stroke: #1f77b4; stroke-width: 1.5"/>
     <use xlink:href="#m72524fc5e4" x="276.430844" y="288.024379" style="fill: #1f77b4; stroke: #1f77b4; stroke-width: 1.5"/>
     <use xlink:href="#m72524fc5e4" x="328.242532" y="288.012664" style="fill: #1f77b4; stroke: #1f77b4; stroke-width: 1.5"/>
     <use xlink:href="#m72524fc5e4" x="380.054221" y="287.991287" style="fill: #1f77b4; stroke: #1f77b4; stroke-width: 1.5"/>
     <use xlink:href="#m72524fc5e4" x="431.865909" y="287.966538" style="fill: #1f77b4; stroke: #1f77b4; stroke-width: 1.5"/>
    </g>
   </g>
   <g id="PathCollection_2">
    <defs>
     <path id="m8159f7ab48" d="M -3 3 
L 3 -3 
M -3 -3 
L 3 3 
" style="stroke: #ff7f0e; stroke-width: 1.5"/>
    </defs>
    <g clip-path="url(#pb4f8f3f5cf)">
     <use xlink:href="#m8159f7ab48" x="69.184091" y="288.056988" style="fill: #ff7f0e; stroke: #ff7f0e; stroke-width: 1.5"/>
     <use xlink:href="#m8159f7ab48" x="120.995779" y="288.246924" style="fill: #ff7f0e; stroke: #ff7f0e; stroke-width: 1.5"/>
     <use xlink:href="#m8159f7ab48" x="172.807468" y="288.354176" style="fill: #ff7f0e; stroke: #ff7f0e; stroke-width: 1.5"/>
     <use xlink:href="#m8159f7ab48" x="224.619156" y="288.42735" style="fill: #ff7f0e; stroke: #ff7f0e; stroke-width: 1.5"/>
     <use xlink:href="#m8159f7ab48" x="276.430844" y="288.453287" style="fill: #ff7f0e; stroke: #ff7f0e; stroke-width: 1.5"/>
     <use xlink:href="#m8159f7ab48" x="328.242532" y="288.470867" style="fill: #ff7f0e; stroke: #ff7f0e; stroke-width: 1.5"/>
     <use xlink:href="#m8159f7ab48" x="380.054221" y="288.47517" style="fill: #ff7f0e; stroke: #ff7f0e; stroke-width: 1.5"/>
     <use xlink:href="#m8159f7ab48" x="431.865909" y="288.482699" style="fill: #ff7f0e; stroke: #ff7f0e; stroke-width: 1.5"/>
    </g>
   </g>
   <g id="PathCollection_3">
    <defs>
     <path id="m634eb423a9" d="M -3 3 
L 3 -3 
M -3 -3 
L 3 3 
" style="stroke: #2ca02c; stroke-width: 1.5"/>
    </defs>
    <g clip-path="url(#pb4f8f3f5cf)">
     <use xlink:href="#m634eb423a9" x="69.184091" y="262.120191" style="fill: #2ca02c; stroke: #2ca02c; stroke-width: 1.5"/>
     <use xlink:href="#m634eb423a9" x="120.995779" y="263.58782" style="fill: #2ca02c; stroke: #2ca02c; stroke-width: 1.5"/>
     <use xlink:href="#m634eb423a9" x="172.807468" y="263.885171" style="fill: #2ca02c; stroke: #2ca02c; stroke-width: 1.5"/>
     <use xlink:href="#m634eb423a9" x="224.619156" y="264.713808" style="fill: #2ca02c; stroke: #2ca02c; stroke-width: 1.5"/>
     <use xlink:href="#m634eb423a9" x="276.430844" y="264.740163" style="fill: #2ca02c; stroke: #2ca02c; stroke-width: 1.5"/>
     <use xlink:href="#m634eb423a9" x="328.242532" y="264.873471" style="fill: #2ca02c; stroke: #2ca02c; stroke-width: 1.5"/>
     <use xlink:href="#m634eb423a9" x="380.054221" y="265.003369" style="fill: #2ca02c; stroke: #2ca02c; stroke-width: 1.5"/>
     <use xlink:href="#m634eb423a9" x="431.865909" y="265.110742" style="fill: #2ca02c; stroke: #2ca02c; stroke-width: 1.5"/>
    </g>
   </g>
   <g id="PathCollection_4">
    <defs>
     <path id="m2ac37385c6" d="M -3 3 
L 3 -3 
M -3 -3 
L 3 3 
" style="stroke: #d62728; stroke-width: 1.5"/>
    </defs>
    <g clip-path="url(#pb4f8f3f5cf)">
     <use xlink:href="#m2ac37385c6" x="69.184091" y="289.911177" style="fill: #d62728; stroke: #d62728; stroke-width: 1.5"/>
     <use xlink:href="#m2ac37385c6" x="120.995779" y="289.918705" style="fill: #d62728; stroke: #d62728; stroke-width: 1.5"/>
     <use xlink:href="#m2ac37385c6" x="172.807468" y="289.920415" style="fill: #d62728; stroke: #d62728; stroke-width: 1.5"/>
     <use xlink:href="#m2ac37385c6" x="224.619156" y="289.91491" style="fill: #d62728; stroke: #d62728; stroke-width: 1.5"/>
     <use xlink:href="#m2ac37385c6" x="276.430844" y="289.921942" style="fill: #d62728; stroke: #d62728; stroke-width: 1.5"/>
     <use xlink:href="#m2ac37385c6" x="328.242532" y="289.915468" style="fill: #d62728; stroke: #d62728; stroke-width: 1.5"/>
     <use xlink:href="#m2ac37385c6" x="380.054221" y="289.914882" style="fill: #d62728; stroke: #d62728; stroke-width: 1.5"/>
     <use xlink:href="#m2ac37385c6" x="431.865909" y="289.917316" style="fill: #d62728; stroke: #d62728; stroke-width: 1.5"/>
    </g>
   </g>
   <g id="PathCollection_5">
    <defs>
     <path id="mdc419e760e" d="M -3 3 
L 3 -3 
M -3 -3 
L 3 3 
" style="stroke: #9467bd; stroke-width: 1.5"/>
    </defs>
    <g clip-path="url(#pb4f8f3f5cf)">
     <use xlink:href="#mdc419e760e" x="69.184091" y="255.301909" style="fill: #9467bd; stroke: #9467bd; stroke-width: 1.5"/>
     <use xlink:href="#mdc419e760e" x="120.995779" y="242.936695" style="fill: #9467bd; stroke: #9467bd; stroke-width: 1.5"/>
     <use xlink:href="#mdc419e760e" x="172.807468" y="232.834112" style="fill: #9467bd; stroke: #9467bd; stroke-width: 1.5"/>
     <use xlink:href="#mdc419e760e" x="224.619156" y="223.713761" style="fill: #9467bd; stroke: #9467bd; stroke-width: 1.5"/>
     <use xlink:href="#mdc419e760e" x="276.430844" y="216.766586" style="fill: #9467bd; stroke: #9467bd; stroke-width: 1.5"/>
     <use xlink:href="#mdc419e760e" x="328.242532" y="210.670322" style="fill: #9467bd; stroke: #9467bd; stroke-width: 1.5"/>
     <use xlink:href="#mdc419e760e" x="380.054221" y="205.607814" style="fill: #9467bd; stroke: #9467bd; stroke-width: 1.5"/>
     <use xlink:href="#mdc419e760e" x="431.865909" y="201.049372" style="fill: #9467bd; stroke: #9467bd; stroke-width: 1.5"/>
    </g>
   </g>
   <g id="PathCollection_6">
    <defs>
     <path id="m4a1d4602db" d="M -3 3 
L 3 -3 
M -3 -3 
L 3 3 
" style="stroke: #8c564b; stroke-width: 1.5"/>
    </defs>
    <g clip-path="url(#pb4f8f3f5cf)">
     <use xlink:href="#m4a1d4602db" x="69.184091" y="169.259646" style="fill: #8c564b; stroke: #8c564b; stroke-width: 1.5"/>
     <use xlink:href="#m4a1d4602db" x="120.995779" y="109.414545" style="fill: #8c564b; stroke: #8c564b; stroke-width: 1.5"/>
     <use xlink:href="#m4a1d4602db" x="172.807468" y="117.731673" style="fill: #8c564b; stroke: #8c564b; stroke-width: 1.5"/>
     <use xlink:href="#m4a1d4602db" x="224.619156" y="76.933264" style="fill: #8c564b; stroke: #8c564b; stroke-width: 1.5"/>
     <use xlink:href="#m4a1d4602db" x="276.430844" y="89.68982" style="fill: #8c564b; stroke: #8c564b; stroke-width: 1.5"/>
     <use xlink:href="#m4a1d4602db" x="328.242532" y="57.045547" style="fill: #8c564b; stroke: #8c564b; stroke-width: 1.5"/>
     <use xlink:href="#m4a1d4602db" x="380.054221" y="71.291488" style="fill: #8c564b; stroke: #8c564b; stroke-width: 1.5"/>
     <use xlink:href="#m4a1d4602db" x="431.865909" y="82.95499" style="fill: #8c564b; stroke: #8c564b; stroke-width: 1.5"/>
    </g>
   </g>
   <g id="PathCollection_7">
    <defs>
     <path id="me71588012c" d="M -3 3 
L 3 -3 
M -3 -3 
L 3 3 
" style="stroke: #e377c2; stroke-width: 1.5"/>
    </defs>
    <g clip-path="url(#pb4f8f3f5cf)">
     <use xlink:href="#me71588012c" x="69.184091" y="254.358027" style="fill: #e377c2; stroke: #e377c2; stroke-width: 1.5"/>
     <use xlink:href="#me71588012c" x="120.995779" y="257.682123" style="fill: #e377c2; stroke: #e377c2; stroke-width: 1.5"/>
     <use xlink:href="#me71588012c" x="172.807468" y="254.843837" style="fill: #e377c2; stroke: #e377c2; stroke-width: 1.5"/>
     <use xlink:href="#me71588012c" x="224.619156" y="253.662023" style="fill: #e377c2; stroke: #e377c2; stroke-width: 1.5"/>
     <use xlink:href="#me71588012c" x="276.430844" y="253.971432" style="fill: #e377c2; stroke: #e377c2; stroke-width: 1.5"/>
     <use xlink:href="#me71588012c" x="328.242532" y="254.317434" style="fill: #e377c2; stroke: #e377c2; stroke-width: 1.5"/>
     <use xlink:href="#me71588012c" x="380.054221" y="254.069538" style="fill: #e377c2; stroke: #e377c2; stroke-width: 1.5"/>
     <use xlink:href="#me71588012c" x="431.865909" y="254.129768" style="fill: #e377c2; stroke: #e377c2; stroke-width: 1.5"/>
    </g>
   </g>
   <g id="PathCollection_8">
    <defs>
     <path id="m738175e734" d="M -3 3 
L 3 -3 
M -3 -3 
L 3 3 
" style="stroke: #7f7f7f; stroke-width: 1.5"/>
    </defs>
    <g clip-path="url(#pb4f8f3f5cf)">
     <use xlink:href="#m738175e734" x="69.184091" y="122.185529" style="fill: #7f7f7f; stroke: #7f7f7f; stroke-width: 1.5"/>
     <use xlink:href="#m738175e734" x="120.995779" y="123.930809" style="fill: #7f7f7f; stroke: #7f7f7f; stroke-width: 1.5"/>
     <use xlink:href="#m738175e734" x="172.807468" y="94.363497" style="fill: #7f7f7f; stroke: #7f7f7f; stroke-width: 1.5"/>
     <use xlink:href="#m738175e734" x="224.619156" y="66.959997" style="fill: #7f7f7f; stroke: #7f7f7f; stroke-width: 1.5"/>
     <use xlink:href="#m738175e734" x="276.430844" y="76.495208" style="fill: #7f7f7f; stroke: #7f7f7f; stroke-width: 1.5"/>
     <use xlink:href="#m738175e734" x="328.242532" y="59.395966" style="fill: #7f7f7f; stroke: #7f7f7f; stroke-width: 1.5"/>
     <use xlink:href="#m738175e734" x="380.054221" y="50.044" style="fill: #7f7f7f; stroke: #7f7f7f; stroke-width: 1.5"/>
     <use xlink:href="#m738175e734" x="431.865909" y="53.912754" style="fill: #7f7f7f; stroke: #7f7f7f; stroke-width: 1.5"/>
    </g>
   </g>
   <g id="PathCollection_9">
    <defs>
     <path id="m031279bf4d" d="M -3 3 
L 3 -3 
M -3 -3 
L 3 3 
" style="stroke: #bcbd22; stroke-width: 1.5"/>
    </defs>
    <g clip-path="url(#pb4f8f3f5cf)">
     <use xlink:href="#m031279bf4d" x="69.184091" y="291.45625" style="fill: #bcbd22; stroke: #bcbd22; stroke-width: 1.5"/>
     <use xlink:href="#m031279bf4d" x="120.995779" y="291.507217" style="fill: #bcbd22; stroke: #bcbd22; stroke-width: 1.5"/>
     <use xlink:href="#m031279bf4d" x="172.807468" y="291.52803" style="fill: #bcbd22; stroke: #bcbd22; stroke-width: 1.5"/>
     <use xlink:href="#m031279bf4d" x="224.619156" y="291.543431" style="fill: #bcbd22; stroke: #bcbd22; stroke-width: 1.5"/>
     <use xlink:href="#m031279bf4d" x="276.430844" y="291.554295" style="fill: #bcbd22; stroke: #bcbd22; stroke-width: 1.5"/>
     <use xlink:href="#m031279bf4d" x="328.242532" y="291.558904" style="fill: #bcbd22; stroke: #bcbd22; stroke-width: 1.5"/>
     <use xlink:href="#m031279bf4d" x="380.054221" y="291.559296" style="fill: #bcbd22; stroke: #bcbd22; stroke-width: 1.5"/>
     <use xlink:href="#m031279bf4d" x="431.865909" y="291.564" style="fill: #bcbd22; stroke: #bcbd22; stroke-width: 1.5"/>
    </g>
   </g>
   <g id="PathCollection_10">
    <defs>
     <path id="m94526fd739" d="M -3 3 
L 3 -3 
M -3 -3 
L 3 3 
" style="stroke: #17becf; stroke-width: 1.5"/>
    </defs>
    <g clip-path="url(#pb4f8f3f5cf)">
     <use xlink:href="#m94526fd739" x="69.184091" y="280.585707" style="fill: #17becf; stroke: #17becf; stroke-width: 1.5"/>
     <use xlink:href="#m94526fd739" x="120.995779" y="280.360045" style="fill: #17becf; stroke: #17becf; stroke-width: 1.5"/>
     <use xlink:href="#m94526fd739" x="172.807468" y="280.25005" style="fill: #17becf; stroke: #17becf; stroke-width: 1.5"/>
     <use xlink:href="#m94526fd739" x="224.619156" y="280.164841" style="fill: #17becf; stroke: #17becf; stroke-width: 1.5"/>
     <use xlink:href="#m94526fd739" x="276.430844" y="280.176587" style="fill: #17becf; stroke: #17becf; stroke-width: 1.5"/>
     <use xlink:href="#m94526fd739" x="328.242532" y="280.165659" style="fill: #17becf; stroke: #17becf; stroke-width: 1.5"/>
     <use xlink:href="#m94526fd739" x="380.054221" y="280.114342" style="fill: #17becf; stroke: #17becf; stroke-width: 1.5"/>
     <use xlink:href="#m94526fd739" x="431.865909" y="280.07531" style="fill: #17becf; stroke: #17becf; stroke-width: 1.5"/>
    </g>
   </g>
   <g id="PathCollection_11">
    <g clip-path="url(#pb4f8f3f5cf)">
     <use xlink:href="#m72524fc5e4" x="69.184091" y="281.46401" style="fill: #1f77b4; stroke: #1f77b4; stroke-width: 1.5"/>
     <use xlink:href="#m72524fc5e4" x="120.995779" y="280.982229" style="fill: #1f77b4; stroke: #1f77b4; stroke-width: 1.5"/>
     <use xlink:href="#m72524fc5e4" x="172.807468" y="280.859226" style="fill: #1f77b4; stroke: #1f77b4; stroke-width: 1.5"/>
     <use xlink:href="#m72524fc5e4" x="224.619156" y="280.721143" style="fill: #1f77b4; stroke: #1f77b4; stroke-width: 1.5"/>
     <use xlink:href="#m72524fc5e4" x="276.430844" y="280.652175" style="fill: #1f77b4; stroke: #1f77b4; stroke-width: 1.5"/>
     <use xlink:href="#m72524fc5e4" x="328.242532" y="280.604972" style="fill: #1f77b4; stroke: #1f77b4; stroke-width: 1.5"/>
     <use xlink:href="#m72524fc5e4" x="380.054221" y="280.561533" style="fill: #1f77b4; stroke: #1f77b4; stroke-width: 1.5"/>
     <use xlink:href="#m72524fc5e4" x="431.865909" y="280.661687" style="fill: #1f77b4; stroke: #1f77b4; stroke-width: 1.5"/>
    </g>
   </g>
   <g id="PathCollection_12">
    <g clip-path="url(#pb4f8f3f5cf)">
     <use xlink:href="#m8159f7ab48" x="69.184091" y="270.188394" style="fill: #ff7f0e; stroke: #ff7f0e; stroke-width: 1.5"/>
     <use xlink:href="#m8159f7ab48" x="120.995779" y="266.717518" style="fill: #ff7f0e; stroke: #ff7f0e; stroke-width: 1.5"/>
     <use xlink:href="#m8159f7ab48" x="172.807468" y="264.359461" style="fill: #ff7f0e; stroke: #ff7f0e; stroke-width: 1.5"/>
     <use xlink:href="#m8159f7ab48" x="224.619156" y="261.868902" style="fill: #ff7f0e; stroke: #ff7f0e; stroke-width: 1.5"/>
     <use xlink:href="#m8159f7ab48" x="276.430844" y="257.030811" style="fill: #ff7f0e; stroke: #ff7f0e; stroke-width: 1.5"/>
     <use xlink:href="#m8159f7ab48" x="328.242532" y="259.948926" style="fill: #ff7f0e; stroke: #ff7f0e; stroke-width: 1.5"/>
     <use xlink:href="#m8159f7ab48" x="380.054221" y="257.836001" style="fill: #ff7f0e; stroke: #ff7f0e; stroke-width: 1.5"/>
     <use xlink:href="#m8159f7ab48" x="431.865909" y="257.911795" style="fill: #ff7f0e; stroke: #ff7f0e; stroke-width: 1.5"/>
    </g>
   </g>
   <g id="PathCollection_13">
    <g clip-path="url(#pb4f8f3f5cf)">
     <use xlink:href="#m634eb423a9" x="69.184091" y="272.849629" style="fill: #2ca02c; stroke: #2ca02c; stroke-width: 1.5"/>
     <use xlink:href="#m634eb423a9" x="120.995779" y="275.349516" style="fill: #2ca02c; stroke: #2ca02c; stroke-width: 1.5"/>
     <use xlink:href="#m634eb423a9" x="172.807468" y="273.741951" style="fill: #2ca02c; stroke: #2ca02c; stroke-width: 1.5"/>
     <use xlink:href="#m634eb423a9" x="224.619156" y="269.036331" style="fill: #2ca02c; stroke: #2ca02c; stroke-width: 1.5"/>
     <use xlink:href="#m634eb423a9" x="276.430844" y="266.15363" style="fill: #2ca02c; stroke: #2ca02c; stroke-width: 1.5"/>
     <use xlink:href="#m634eb423a9" x="328.242532" y="261.658826" style="fill: #2ca02c; stroke: #2ca02c; stroke-width: 1.5"/>
     <use xlink:href="#m634eb423a9" x="380.054221" y="262.011712" style="fill: #2ca02c; stroke: #2ca02c; stroke-width: 1.5"/>
     <use xlink:href="#m634eb423a9" x="431.865909" y="258.273167" style="fill: #2ca02c; stroke: #2ca02c; stroke-width: 1.5"/>
    </g>
   </g>
   <g id="PathCollection_14">
    <g clip-path="url(#pb4f8f3f5cf)">
     <use xlink:href="#m2ac37385c6" x="69.184091" y="280.528438" style="fill: #d62728; stroke: #d62728; stroke-width: 1.5"/>
     <use xlink:href="#m2ac37385c6" x="120.995779" y="279.744376" style="fill: #d62728; stroke: #d62728; stroke-width: 1.5"/>
     <use xlink:href="#m2ac37385c6" x="172.807468" y="279.826454" style="fill: #d62728; stroke: #d62728; stroke-width: 1.5"/>
     <use xlink:href="#m2ac37385c6" x="224.619156" y="279.606354" style="fill: #d62728; stroke: #d62728; stroke-width: 1.5"/>
     <use xlink:href="#m2ac37385c6" x="276.430844" y="279.452758" style="fill: #d62728; stroke: #d62728; stroke-width: 1.5"/>
     <use xlink:href="#m2ac37385c6" x="328.242532" y="279.57513" style="fill: #d62728; stroke: #d62728; stroke-width: 1.5"/>
     <use xlink:href="#m2ac37385c6" x="380.054221" y="279.591691" style="fill: #d62728; stroke: #d62728; stroke-width: 1.5"/>
     <use xlink:href="#m2ac37385c6" x="431.865909" y="279.452574" style="fill: #d62728; stroke: #d62728; stroke-width: 1.5"/>
    </g>
   </g>
   <g id="matplotlib.axis_1">
    <g id="xtick_1">
     <g id="line2d_1">
      <defs>
       <path id="m1a0dff16da" d="M 0 0 
L 0 3.5 
" style="stroke: #000000; stroke-width: 0.8"/>
      </defs>
      <g>
       <use xlink:href="#m1a0dff16da" x="66.755418" y="303.64" style="stroke: #000000; stroke-width: 0.8"/>
      </g>
     </g>
     <g id="text_1">
      <!-- 2000 -->
      <g transform="translate(54.030418 318.238437) scale(0.1 -0.1)">
       <defs>
        <path id="DejaVuSans-32" d="M 1228 531 
L 3431 531 
L 3431 0 
L 469 0 
L 469 531 
Q 828 903 1448 1529 
Q 2069 2156 2228 2338 
Q 2531 2678 2651 2914 
Q 2772 3150 2772 3378 
Q 2772 3750 2511 3984 
Q 2250 4219 1831 4219 
Q 1534 4219 1204 4116 
Q 875 4013 500 3803 
L 500 4441 
Q 881 4594 1212 4672 
Q 1544 4750 1819 4750 
Q 2544 4750 2975 4387 
Q 3406 4025 3406 3419 
Q 3406 3131 3298 2873 
Q 3191 2616 2906 2266 
Q 2828 2175 2409 1742 
Q 1991 1309 1228 531 
z
" transform="scale(0.015625)"/>
        <path id="DejaVuSans-30" d="M 2034 4250 
Q 1547 4250 1301 3770 
Q 1056 3291 1056 2328 
Q 1056 1369 1301 889 
Q 1547 409 2034 409 
Q 2525 409 2770 889 
Q 3016 1369 3016 2328 
Q 3016 3291 2770 3770 
Q 2525 4250 2034 4250 
z
M 2034 4750 
Q 2819 4750 3233 4129 
Q 3647 3509 3647 2328 
Q 3647 1150 3233 529 
Q 2819 -91 2034 -91 
Q 1250 -91 836 529 
Q 422 1150 422 2328 
Q 422 3509 836 4129 
Q 1250 4750 2034 4750 
z
" transform="scale(0.015625)"/>
       </defs>
       <use xlink:href="#DejaVuSans-32"/>
       <use xlink:href="#DejaVuSans-30" x="63.623047"/>
       <use xlink:href="#DejaVuSans-30" x="127.246094"/>
       <use xlink:href="#DejaVuSans-30" x="190.869141"/>
      </g>
     </g>
    </g>
    <g id="xtick_2">
     <g id="line2d_2">
      <g>
       <use xlink:href="#m1a0dff16da" x="117.35277" y="303.64" style="stroke: #000000; stroke-width: 0.8"/>
      </g>
     </g>
     <g id="text_2">
      <!-- 3000 -->
      <g transform="translate(104.62777 318.238437) scale(0.1 -0.1)">
       <defs>
        <path id="DejaVuSans-33" d="M 2597 2516 
Q 3050 2419 3304 2112 
Q 3559 1806 3559 1356 
Q 3559 666 3084 287 
Q 2609 -91 1734 -91 
Q 1441 -91 1130 -33 
Q 819 25 488 141 
L 488 750 
Q 750 597 1062 519 
Q 1375 441 1716 441 
Q 2309 441 2620 675 
Q 2931 909 2931 1356 
Q 2931 1769 2642 2001 
Q 2353 2234 1838 2234 
L 1294 2234 
L 1294 2753 
L 1863 2753 
Q 2328 2753 2575 2939 
Q 2822 3125 2822 3475 
Q 2822 3834 2567 4026 
Q 2313 4219 1838 4219 
Q 1578 4219 1281 4162 
Q 984 4106 628 3988 
L 628 4550 
Q 988 4650 1302 4700 
Q 1616 4750 1894 4750 
Q 2613 4750 3031 4423 
Q 3450 4097 3450 3541 
Q 3450 3153 3228 2886 
Q 3006 2619 2597 2516 
z
" transform="scale(0.015625)"/>
       </defs>
       <use xlink:href="#DejaVuSans-33"/>
       <use xlink:href="#DejaVuSans-30" x="63.623047"/>
       <use xlink:href="#DejaVuSans-30" x="127.246094"/>
       <use xlink:href="#DejaVuSans-30" x="190.869141"/>
      </g>
     </g>
    </g>
    <g id="xtick_3">
     <g id="line2d_3">
      <g>
       <use xlink:href="#m1a0dff16da" x="167.950122" y="303.64" style="stroke: #000000; stroke-width: 0.8"/>
      </g>
     </g>
     <g id="text_3">
      <!-- 4000 -->
      <g transform="translate(155.225122 318.238437) scale(0.1 -0.1)">
       <defs>
        <path id="DejaVuSans-34" d="M 2419 4116 
L 825 1625 
L 2419 1625 
L 2419 4116 
z
M 2253 4666 
L 3047 4666 
L 3047 1625 
L 3713 1625 
L 3713 1100 
L 3047 1100 
L 3047 0 
L 2419 0 
L 2419 1100 
L 313 1100 
L 313 1709 
L 2253 4666 
z
" transform="scale(0.015625)"/>
       </defs>
       <use xlink:href="#DejaVuSans-34"/>
       <use xlink:href="#DejaVuSans-30" x="63.623047"/>
       <use xlink:href="#DejaVuSans-30" x="127.246094"/>
       <use xlink:href="#DejaVuSans-30" x="190.869141"/>
      </g>
     </g>
    </g>
    <g id="xtick_4">
     <g id="line2d_4">
      <g>
       <use xlink:href="#m1a0dff16da" x="218.547474" y="303.64" style="stroke: #000000; stroke-width: 0.8"/>
      </g>
     </g>
     <g id="text_4">
      <!-- 5000 -->
      <g transform="translate(205.822474 318.238437) scale(0.1 -0.1)">
       <defs>
        <path id="DejaVuSans-35" d="M 691 4666 
L 3169 4666 
L 3169 4134 
L 1269 4134 
L 1269 2991 
Q 1406 3038 1543 3061 
Q 1681 3084 1819 3084 
Q 2600 3084 3056 2656 
Q 3513 2228 3513 1497 
Q 3513 744 3044 326 
Q 2575 -91 1722 -91 
Q 1428 -91 1123 -41 
Q 819 9 494 109 
L 494 744 
Q 775 591 1075 516 
Q 1375 441 1709 441 
Q 2250 441 2565 725 
Q 2881 1009 2881 1497 
Q 2881 1984 2565 2268 
Q 2250 2553 1709 2553 
Q 1456 2553 1204 2497 
Q 953 2441 691 2322 
L 691 4666 
z
" transform="scale(0.015625)"/>
       </defs>
       <use xlink:href="#DejaVuSans-35"/>
       <use xlink:href="#DejaVuSans-30" x="63.623047"/>
       <use xlink:href="#DejaVuSans-30" x="127.246094"/>
       <use xlink:href="#DejaVuSans-30" x="190.869141"/>
      </g>
     </g>
    </g>
    <g id="xtick_5">
     <g id="line2d_5">
      <g>
       <use xlink:href="#m1a0dff16da" x="269.144825" y="303.64" style="stroke: #000000; stroke-width: 0.8"/>
      </g>
     </g>
     <g id="text_5">
      <!-- 6000 -->
      <g transform="translate(256.419825 318.238437) scale(0.1 -0.1)">
       <defs>
        <path id="DejaVuSans-36" d="M 2113 2584 
Q 1688 2584 1439 2293 
Q 1191 2003 1191 1497 
Q 1191 994 1439 701 
Q 1688 409 2113 409 
Q 2538 409 2786 701 
Q 3034 994 3034 1497 
Q 3034 2003 2786 2293 
Q 2538 2584 2113 2584 
z
M 3366 4563 
L 3366 3988 
Q 3128 4100 2886 4159 
Q 2644 4219 2406 4219 
Q 1781 4219 1451 3797 
Q 1122 3375 1075 2522 
Q 1259 2794 1537 2939 
Q 1816 3084 2150 3084 
Q 2853 3084 3261 2657 
Q 3669 2231 3669 1497 
Q 3669 778 3244 343 
Q 2819 -91 2113 -91 
Q 1303 -91 875 529 
Q 447 1150 447 2328 
Q 447 3434 972 4092 
Q 1497 4750 2381 4750 
Q 2619 4750 2861 4703 
Q 3103 4656 3366 4563 
z
" transform="scale(0.015625)"/>
       </defs>
       <use xlink:href="#DejaVuSans-36"/>
       <use xlink:href="#DejaVuSans-30" x="63.623047"/>
       <use xlink:href="#DejaVuSans-30" x="127.246094"/>
       <use xlink:href="#DejaVuSans-30" x="190.869141"/>
      </g>
     </g>
    </g>
    <g id="xtick_6">
     <g id="line2d_6">
      <g>
       <use xlink:href="#m1a0dff16da" x="319.742177" y="303.64" style="stroke: #000000; stroke-width: 0.8"/>
      </g>
     </g>
     <g id="text_6">
      <!-- 7000 -->
      <g transform="translate(307.017177 318.238437) scale(0.1 -0.1)">
       <defs>
        <path id="DejaVuSans-37" d="M 525 4666 
L 3525 4666 
L 3525 4397 
L 1831 0 
L 1172 0 
L 2766 4134 
L 525 4134 
L 525 4666 
z
" transform="scale(0.015625)"/>
       </defs>
       <use xlink:href="#DejaVuSans-37"/>
       <use xlink:href="#DejaVuSans-30" x="63.623047"/>
       <use xlink:href="#DejaVuSans-30" x="127.246094"/>
       <use xlink:href="#DejaVuSans-30" x="190.869141"/>
      </g>
     </g>
    </g>
    <g id="xtick_7">
     <g id="line2d_7">
      <g>
       <use xlink:href="#m1a0dff16da" x="370.339529" y="303.64" style="stroke: #000000; stroke-width: 0.8"/>
      </g>
     </g>
     <g id="text_7">
      <!-- 8000 -->
      <g transform="translate(357.614529 318.238437) scale(0.1 -0.1)">
       <defs>
        <path id="DejaVuSans-38" d="M 2034 2216 
Q 1584 2216 1326 1975 
Q 1069 1734 1069 1313 
Q 1069 891 1326 650 
Q 1584 409 2034 409 
Q 2484 409 2743 651 
Q 3003 894 3003 1313 
Q 3003 1734 2745 1975 
Q 2488 2216 2034 2216 
z
M 1403 2484 
Q 997 2584 770 2862 
Q 544 3141 544 3541 
Q 544 4100 942 4425 
Q 1341 4750 2034 4750 
Q 2731 4750 3128 4425 
Q 3525 4100 3525 3541 
Q 3525 3141 3298 2862 
Q 3072 2584 2669 2484 
Q 3125 2378 3379 2068 
Q 3634 1759 3634 1313 
Q 3634 634 3220 271 
Q 2806 -91 2034 -91 
Q 1263 -91 848 271 
Q 434 634 434 1313 
Q 434 1759 690 2068 
Q 947 2378 1403 2484 
z
M 1172 3481 
Q 1172 3119 1398 2916 
Q 1625 2713 2034 2713 
Q 2441 2713 2670 2916 
Q 2900 3119 2900 3481 
Q 2900 3844 2670 4047 
Q 2441 4250 2034 4250 
Q 1625 4250 1398 4047 
Q 1172 3844 1172 3481 
z
" transform="scale(0.015625)"/>
       </defs>
       <use xlink:href="#DejaVuSans-38"/>
       <use xlink:href="#DejaVuSans-30" x="63.623047"/>
       <use xlink:href="#DejaVuSans-30" x="127.246094"/>
       <use xlink:href="#DejaVuSans-30" x="190.869141"/>
      </g>
     </g>
    </g>
    <g id="xtick_8">
     <g id="line2d_8">
      <g>
       <use xlink:href="#m1a0dff16da" x="420.936881" y="303.64" style="stroke: #000000; stroke-width: 0.8"/>
      </g>
     </g>
     <g id="text_8">
      <!-- 9000 -->
      <g transform="translate(408.211881 318.238437) scale(0.1 -0.1)">
       <defs>
        <path id="DejaVuSans-39" d="M 703 97 
L 703 672 
Q 941 559 1184 500 
Q 1428 441 1663 441 
Q 2288 441 2617 861 
Q 2947 1281 2994 2138 
Q 2813 1869 2534 1725 
Q 2256 1581 1919 1581 
Q 1219 1581 811 2004 
Q 403 2428 403 3163 
Q 403 3881 828 4315 
Q 1253 4750 1959 4750 
Q 2769 4750 3195 4129 
Q 3622 3509 3622 2328 
Q 3622 1225 3098 567 
Q 2575 -91 1691 -91 
Q 1453 -91 1209 -44 
Q 966 3 703 97 
z
M 1959 2075 
Q 2384 2075 2632 2365 
Q 2881 2656 2881 3163 
Q 2881 3666 2632 3958 
Q 2384 4250 1959 4250 
Q 1534 4250 1286 3958 
Q 1038 3666 1038 3163 
Q 1038 2656 1286 2365 
Q 1534 2075 1959 2075 
z
" transform="scale(0.015625)"/>
       </defs>
       <use xlink:href="#DejaVuSans-39"/>
       <use xlink:href="#DejaVuSans-30" x="63.623047"/>
       <use xlink:href="#DejaVuSans-30" x="127.246094"/>
       <use xlink:href="#DejaVuSans-30" x="190.869141"/>
      </g>
     </g>
    </g>
    <g id="text_9">
     <!-- N -->
     <g transform="translate(246.784375 331.916562) scale(0.1 -0.1)">
      <defs>
       <path id="DejaVuSans-4e" d="M 628 4666 
L 1478 4666 
L 3547 763 
L 3547 4666 
L 4159 4666 
L 4159 0 
L 3309 0 
L 1241 3903 
L 1241 0 
L 628 0 
L 628 4666 
z
" transform="scale(0.015625)"/>
      </defs>
      <use xlink:href="#DejaVuSans-4e"/>
     </g>
    </g>
   </g>
   <g id="matplotlib.axis_2">
    <g id="ytick_1">
     <g id="line2d_9">
      <defs>
       <path id="m3007cee8ce" d="M 0 0 
L -3.5 0 
" style="stroke: #000000; stroke-width: 0.8"/>
      </defs>
      <g>
       <use xlink:href="#m3007cee8ce" x="51.05" y="292.621498" style="stroke: #000000; stroke-width: 0.8"/>
      </g>
     </g>
     <g id="text_10">
      <!-- 0 -->
      <g transform="translate(37.6875 296.420717) scale(0.1 -0.1)">
       <use xlink:href="#DejaVuSans-30"/>
      </g>
     </g>
    </g>
    <g id="ytick_2">
     <g id="line2d_10">
      <g>
       <use xlink:href="#m3007cee8ce" x="51.05" y="235.085427" style="stroke: #000000; stroke-width: 0.8"/>
      </g>
     </g>
     <g id="text_11">
      <!-- 100 -->
      <g transform="translate(24.9625 238.884646) scale(0.1 -0.1)">
       <defs>
        <path id="DejaVuSans-31" d="M 794 531 
L 1825 531 
L 1825 4091 
L 703 3866 
L 703 4441 
L 1819 4666 
L 2450 4666 
L 2450 531 
L 3481 531 
L 3481 0 
L 794 0 
L 794 531 
z
" transform="scale(0.015625)"/>
       </defs>
       <use xlink:href="#DejaVuSans-31"/>
       <use xlink:href="#DejaVuSans-30" x="63.623047"/>
       <use xlink:href="#DejaVuSans-30" x="127.246094"/>
      </g>
     </g>
    </g>
    <g id="ytick_3">
     <g id="line2d_11">
      <g>
       <use xlink:href="#m3007cee8ce" x="51.05" y="177.549356" style="stroke: #000000; stroke-width: 0.8"/>
      </g>
     </g>
     <g id="text_12">
      <!-- 200 -->
      <g transform="translate(24.9625 181.348575) scale(0.1 -0.1)">
       <use xlink:href="#DejaVuSans-32"/>
       <use xlink:href="#DejaVuSans-30" x="63.623047"/>
       <use xlink:href="#DejaVuSans-30" x="127.246094"/>
      </g>
     </g>
    </g>
    <g id="ytick_4">
     <g id="line2d_12">
      <g>
       <use xlink:href="#m3007cee8ce" x="51.05" y="120.013286" style="stroke: #000000; stroke-width: 0.8"/>
      </g>
     </g>
     <g id="text_13">
      <!-- 300 -->
      <g transform="translate(24.9625 123.812504) scale(0.1 -0.1)">
       <use xlink:href="#DejaVuSans-33"/>
       <use xlink:href="#DejaVuSans-30" x="63.623047"/>
       <use xlink:href="#DejaVuSans-30" x="127.246094"/>
      </g>
     </g>
    </g>
    <g id="ytick_5">
     <g id="line2d_13">
      <g>
       <use xlink:href="#m3007cee8ce" x="51.05" y="62.477215" style="stroke: #000000; stroke-width: 0.8"/>
      </g>
     </g>
     <g id="text_14">
      <!-- 400 -->
      <g transform="translate(24.9625 66.276433) scale(0.1 -0.1)">
       <use xlink:href="#DejaVuSans-34"/>
       <use xlink:href="#DejaVuSans-30" x="63.623047"/>
       <use xlink:href="#DejaVuSans-30" x="127.246094"/>
      </g>
     </g>
    </g>
    <g id="text_15">
     <!-- Throughput (MS / s) -->
     <g transform="translate(18.882812 220.289937) rotate(-90) scale(0.1 -0.1)">
      <defs>
       <path id="DejaVuSans-54" d="M -19 4666 
L 3928 4666 
L 3928 4134 
L 2272 4134 
L 2272 0 
L 1638 0 
L 1638 4134 
L -19 4134 
L -19 4666 
z
" transform="scale(0.015625)"/>
       <path id="DejaVuSans-68" d="M 3513 2113 
L 3513 0 
L 2938 0 
L 2938 2094 
Q 2938 2591 2744 2837 
Q 2550 3084 2163 3084 
Q 1697 3084 1428 2787 
Q 1159 2491 1159 1978 
L 1159 0 
L 581 0 
L 581 4863 
L 1159 4863 
L 1159 2956 
Q 1366 3272 1645 3428 
Q 1925 3584 2291 3584 
Q 2894 3584 3203 3211 
Q 3513 2838 3513 2113 
z
" transform="scale(0.015625)"/>
       <path id="DejaVuSans-72" d="M 2631 2963 
Q 2534 3019 2420 3045 
Q 2306 3072 2169 3072 
Q 1681 3072 1420 2755 
Q 1159 2438 1159 1844 
L 1159 0 
L 581 0 
L 581 3500 
L 1159 3500 
L 1159 2956 
Q 1341 3275 1631 3429 
Q 1922 3584 2338 3584 
Q 2397 3584 2469 3576 
Q 2541 3569 2628 3553 
L 2631 2963 
z
" transform="scale(0.015625)"/>
       <path id="DejaVuSans-6f" d="M 1959 3097 
Q 1497 3097 1228 2736 
Q 959 2375 959 1747 
Q 959 1119 1226 758 
Q 1494 397 1959 397 
Q 2419 397 2687 759 
Q 2956 1122 2956 1747 
Q 2956 2369 2687 2733 
Q 2419 3097 1959 3097 
z
M 1959 3584 
Q 2709 3584 3137 3096 
Q 3566 2609 3566 1747 
Q 3566 888 3137 398 
Q 2709 -91 1959 -91 
Q 1206 -91 779 398 
Q 353 888 353 1747 
Q 353 2609 779 3096 
Q 1206 3584 1959 3584 
z
" transform="scale(0.015625)"/>
       <path id="DejaVuSans-75" d="M 544 1381 
L 544 3500 
L 1119 3500 
L 1119 1403 
Q 1119 906 1312 657 
Q 1506 409 1894 409 
Q 2359 409 2629 706 
Q 2900 1003 2900 1516 
L 2900 3500 
L 3475 3500 
L 3475 0 
L 2900 0 
L 2900 538 
Q 2691 219 2414 64 
Q 2138 -91 1772 -91 
Q 1169 -91 856 284 
Q 544 659 544 1381 
z
M 1991 3584 
L 1991 3584 
z
" transform="scale(0.015625)"/>
       <path id="DejaVuSans-67" d="M 2906 1791 
Q 2906 2416 2648 2759 
Q 2391 3103 1925 3103 
Q 1463 3103 1205 2759 
Q 947 2416 947 1791 
Q 947 1169 1205 825 
Q 1463 481 1925 481 
Q 2391 481 2648 825 
Q 2906 1169 2906 1791 
z
M 3481 434 
Q 3481 -459 3084 -895 
Q 2688 -1331 1869 -1331 
Q 1566 -1331 1297 -1286 
Q 1028 -1241 775 -1147 
L 775 -588 
Q 1028 -725 1275 -790 
Q 1522 -856 1778 -856 
Q 2344 -856 2625 -561 
Q 2906 -266 2906 331 
L 2906 616 
Q 2728 306 2450 153 
Q 2172 0 1784 0 
Q 1141 0 747 490 
Q 353 981 353 1791 
Q 353 2603 747 3093 
Q 1141 3584 1784 3584 
Q 2172 3584 2450 3431 
Q 2728 3278 2906 2969 
L 2906 3500 
L 3481 3500 
L 3481 434 
z
" transform="scale(0.015625)"/>
       <path id="DejaVuSans-70" d="M 1159 525 
L 1159 -1331 
L 581 -1331 
L 581 3500 
L 1159 3500 
L 1159 2969 
Q 1341 3281 1617 3432 
Q 1894 3584 2278 3584 
Q 2916 3584 3314 3078 
Q 3713 2572 3713 1747 
Q 3713 922 3314 415 
Q 2916 -91 2278 -91 
Q 1894 -91 1617 61 
Q 1341 213 1159 525 
z
M 3116 1747 
Q 3116 2381 2855 2742 
Q 2594 3103 2138 3103 
Q 1681 3103 1420 2742 
Q 1159 2381 1159 1747 
Q 1159 1113 1420 752 
Q 1681 391 2138 391 
Q 2594 391 2855 752 
Q 3116 1113 3116 1747 
z
" transform="scale(0.015625)"/>
       <path id="DejaVuSans-74" d="M 1172 4494 
L 1172 3500 
L 2356 3500 
L 2356 3053 
L 1172 3053 
L 1172 1153 
Q 1172 725 1289 603 
Q 1406 481 1766 481 
L 2356 481 
L 2356 0 
L 1766 0 
Q 1100 0 847 248 
Q 594 497 594 1153 
L 594 3053 
L 172 3053 
L 172 3500 
L 594 3500 
L 594 4494 
L 1172 4494 
z
" transform="scale(0.015625)"/>
       <path id="DejaVuSans-20" transform="scale(0.015625)"/>
       <path id="DejaVuSans-28" d="M 1984 4856 
Q 1566 4138 1362 3434 
Q 1159 2731 1159 2009 
Q 1159 1288 1364 580 
Q 1569 -128 1984 -844 
L 1484 -844 
Q 1016 -109 783 600 
Q 550 1309 550 2009 
Q 550 2706 781 3412 
Q 1013 4119 1484 4856 
L 1984 4856 
z
" transform="scale(0.015625)"/>
       <path id="DejaVuSans-4d" d="M 628 4666 
L 1569 4666 
L 2759 1491 
L 3956 4666 
L 4897 4666 
L 4897 0 
L 4281 0 
L 4281 4097 
L 3078 897 
L 2444 897 
L 1241 4097 
L 1241 0 
L 628 0 
L 628 4666 
z
" transform="scale(0.015625)"/>
       <path id="DejaVuSans-53" d="M 3425 4513 
L 3425 3897 
Q 3066 4069 2747 4153 
Q 2428 4238 2131 4238 
Q 1616 4238 1336 4038 
Q 1056 3838 1056 3469 
Q 1056 3159 1242 3001 
Q 1428 2844 1947 2747 
L 2328 2669 
Q 3034 2534 3370 2195 
Q 3706 1856 3706 1288 
Q 3706 609 3251 259 
Q 2797 -91 1919 -91 
Q 1588 -91 1214 -16 
Q 841 59 441 206 
L 441 856 
Q 825 641 1194 531 
Q 1563 422 1919 422 
Q 2459 422 2753 634 
Q 3047 847 3047 1241 
Q 3047 1584 2836 1778 
Q 2625 1972 2144 2069 
L 1759 2144 
Q 1053 2284 737 2584 
Q 422 2884 422 3419 
Q 422 4038 858 4394 
Q 1294 4750 2059 4750 
Q 2388 4750 2728 4690 
Q 3069 4631 3425 4513 
z
" transform="scale(0.015625)"/>
       <path id="DejaVuSans-2f" d="M 1625 4666 
L 2156 4666 
L 531 -594 
L 0 -594 
L 1625 4666 
z
" transform="scale(0.015625)"/>
       <path id="DejaVuSans-73" d="M 2834 3397 
L 2834 2853 
Q 2591 2978 2328 3040 
Q 2066 3103 1784 3103 
Q 1356 3103 1142 2972 
Q 928 2841 928 2578 
Q 928 2378 1081 2264 
Q 1234 2150 1697 2047 
L 1894 2003 
Q 2506 1872 2764 1633 
Q 3022 1394 3022 966 
Q 3022 478 2636 193 
Q 2250 -91 1575 -91 
Q 1294 -91 989 -36 
Q 684 19 347 128 
L 347 722 
Q 666 556 975 473 
Q 1284 391 1588 391 
Q 1994 391 2212 530 
Q 2431 669 2431 922 
Q 2431 1156 2273 1281 
Q 2116 1406 1581 1522 
L 1381 1569 
Q 847 1681 609 1914 
Q 372 2147 372 2553 
Q 372 3047 722 3315 
Q 1072 3584 1716 3584 
Q 2034 3584 2315 3537 
Q 2597 3491 2834 3397 
z
" transform="scale(0.015625)"/>
       <path id="DejaVuSans-29" d="M 513 4856 
L 1013 4856 
Q 1481 4119 1714 3412 
Q 1947 2706 1947 2009 
Q 1947 1309 1714 600 
Q 1481 -109 1013 -844 
L 513 -844 
Q 928 -128 1133 580 
Q 1338 1288 1338 2009 
Q 1338 2731 1133 3434 
Q 928 4138 513 4856 
z
" transform="scale(0.015625)"/>
      </defs>
      <use xlink:href="#DejaVuSans-54"/>
      <use xlink:href="#DejaVuSans-68" x="61.083984"/>
      <use xlink:href="#DejaVuSans-72" x="124.462891"/>
      <use xlink:href="#DejaVuSans-6f" x="163.326172"/>
      <use xlink:href="#DejaVuSans-75" x="224.507812"/>
      <use xlink:href="#DejaVuSans-67" x="287.886719"/>
      <use xlink:href="#DejaVuSans-68" x="351.363281"/>
      <use xlink:href="#DejaVuSans-70" x="414.742188"/>
      <use xlink:href="#DejaVuSans-75" x="478.21875"/>
      <use xlink:href="#DejaVuSans-74" x="541.597656"/>
      <use xlink:href="#DejaVuSans-20" x="580.806641"/>
      <use xlink:href="#DejaVuSans-28" x="612.59375"/>
      <use xlink:href="#DejaVuSans-4d" x="651.607422"/>
      <use xlink:href="#DejaVuSans-53" x="737.886719"/>
      <use xlink:href="#DejaVuSans-20" x="801.363281"/>
      <use xlink:href="#DejaVuSans-2f" x="833.150391"/>
      <use xlink:href="#DejaVuSans-20" x="866.841797"/>
      <use xlink:href="#DejaVuSans-73" x="898.628906"/>
      <use xlink:href="#DejaVuSans-29" x="950.728516"/>
     </g>
    </g>
   </g>
   <g id="line2d_14">
    <path d="M 69.184091 288.347053 
L 120.995779 288.211618 
L 172.807468 288.122119 
L 224.619156 288.062732 
L 276.430844 288.024379 
L 328.242532 288.012664 
L 380.054221 287.991287 
L 431.865909 287.966538 
" clip-path="url(#pb4f8f3f5cf)" style="fill: none; stroke: #1f77b4; stroke-width: 1.5; stroke-linecap: square"/>
   </g>
   <g id="line2d_15">
    <path d="M 69.184091 288.056988 
L 120.995779 288.246924 
L 172.807468 288.354176 
L 224.619156 288.42735 
L 276.430844 288.453287 
L 328.242532 288.470867 
L 380.054221 288.47517 
L 431.865909 288.482699 
" clip-path="url(#pb4f8f3f5cf)" style="fill: none; stroke: #ff7f0e; stroke-width: 1.5; stroke-linecap: square"/>
   </g>
   <g id="line2d_16">
    <path d="M 69.184091 262.120191 
L 120.995779 263.58782 
L 172.807468 263.885171 
L 224.619156 264.713808 
L 276.430844 264.740163 
L 328.242532 264.873471 
L 380.054221 265.003369 
L 431.865909 265.110742 
" clip-path="url(#pb4f8f3f5cf)" style="fill: none; stroke: #2ca02c; stroke-width: 1.5; stroke-linecap: square"/>
   </g>
   <g id="line2d_17">
    <path d="M 69.184091 289.911177 
L 120.995779 289.918705 
L 172.807468 289.920415 
L 224.619156 289.91491 
L 276.430844 289.921942 
L 328.242532 289.915468 
L 380.054221 289.914882 
L 431.865909 289.917316 
" clip-path="url(#pb4f8f3f5cf)" style="fill: none; stroke: #d62728; stroke-width: 1.5; stroke-linecap: square"/>
   </g>
   <g id="line2d_18">
    <path d="M 69.184091 255.301909 
L 120.995779 242.936695 
L 172.807468 232.834112 
L 224.619156 223.713761 
L 276.430844 216.766586 
L 328.242532 210.670322 
L 380.054221 205.607814 
L 431.865909 201.049372 
" clip-path="url(#pb4f8f3f5cf)" style="fill: none; stroke: #9467bd; stroke-width: 1.5; stroke-linecap: square"/>
   </g>
   <g id="line2d_19">
    <path d="M 69.184091 169.259646 
L 120.995779 109.414545 
L 172.807468 117.731673 
L 224.619156 76.933264 
L 276.430844 89.68982 
L 328.242532 57.045547 
L 380.054221 71.291488 
L 431.865909 82.95499 
" clip-path="url(#pb4f8f3f5cf)" style="fill: none; stroke: #8c564b; stroke-width: 1.5; stroke-linecap: square"/>
   </g>
   <g id="line2d_20">
    <path d="M 69.184091 254.358027 
L 120.995779 257.682123 
L 172.807468 254.843837 
L 224.619156 253.662023 
L 276.430844 253.971432 
L 328.242532 254.317434 
L 380.054221 254.069538 
L 431.865909 254.129768 
" clip-path="url(#pb4f8f3f5cf)" style="fill: none; stroke: #e377c2; stroke-width: 1.5; stroke-linecap: square"/>
   </g>
   <g id="line2d_21">
    <path d="M 69.184091 122.185529 
L 120.995779 123.930809 
L 172.807468 94.363497 
L 224.619156 66.959997 
L 276.430844 76.495208 
L 328.242532 59.395966 
L 380.054221 50.044 
L 431.865909 53.912754 
" clip-path="url(#pb4f8f3f5cf)" style="fill: none; stroke: #7f7f7f; stroke-width: 1.5; stroke-linecap: square"/>
   </g>
   <g id="line2d_22">
    <path d="M 69.184091 291.45625 
L 120.995779 291.507217 
L 172.807468 291.52803 
L 224.619156 291.543431 
L 276.430844 291.554295 
L 328.242532 291.558904 
L 380.054221 291.559296 
L 431.865909 291.564 
" clip-path="url(#pb4f8f3f5cf)" style="fill: none; stroke: #bcbd22; stroke-width: 1.5; stroke-linecap: square"/>
   </g>
   <g id="line2d_23">
    <path d="M 69.184091 280.585707 
L 120.995779 280.360045 
L 172.807468 280.25005 
L 224.619156 280.164841 
L 276.430844 280.176587 
L 328.242532 280.165659 
L 380.054221 280.114342 
L 431.865909 280.07531 
" clip-path="url(#pb4f8f3f5cf)" style="fill: none; stroke: #17becf; stroke-width: 1.5; stroke-linecap: square"/>
   </g>
   <g id="line2d_24">
    <path d="M 69.184091 281.46401 
L 120.995779 280.982229 
L 172.807468 280.859226 
L 224.619156 280.721143 
L 276.430844 280.652175 
L 328.242532 280.604972 
L 380.054221 280.561533 
L 431.865909 280.661687 
" clip-path="url(#pb4f8f3f5cf)" style="fill: none; stroke: #1f77b4; stroke-width: 1.5; stroke-linecap: square"/>
   </g>
   <g id="line2d_25">
    <path d="M 69.184091 270.188394 
L 120.995779 266.717518 
L 172.807468 264.359461 
L 224.619156 261.868902 
L 276.430844 257.030811 
L 328.242532 259.948926 
L 380.054221 257.836001 
L 431.865909 257.911795 
" clip-path="url(#pb4f8f3f5cf)" style="fill: none; stroke: #ff7f0e; stroke-width: 1.5; stroke-linecap: square"/>
   </g>
   <g id="line2d_26">
    <path d="M 69.184091 272.849629 
L 120.995779 275.349516 
L 172.807468 273.741951 
L 224.619156 269.036331 
L 276.430844 266.15363 
L 328.242532 261.658826 
L 380.054221 262.011712 
L 431.865909 258.273167 
" clip-path="url(#pb4f8f3f5cf)" style="fill: none; stroke: #2ca02c; stroke-width: 1.5; stroke-linecap: square"/>
   </g>
   <g id="line2d_27">
    <path d="M 69.184091 280.528438 
L 120.995779 279.744376 
L 172.807468 279.826454 
L 224.619156 279.606354 
L 276.430844 279.452758 
L 328.242532 279.57513 
L 380.054221 279.591691 
L 431.865909 279.452574 
" clip-path="url(#pb4f8f3f5cf)" style="fill: none; stroke: #d62728; stroke-width: 1.5; stroke-linecap: square"/>
   </g>
   <g id="patch_3">
    <path d="M 51.05 303.64 
L 51.05 37.968 
" style="fill: none; stroke: #000000; stroke-width: 0.8; stroke-linejoin: miter; stroke-linecap: square"/>
   </g>
   <g id="patch_4">
    <path d="M 450 303.64 
L 450 37.968 
" style="fill: none; stroke: #000000; stroke-width: 0.8; stroke-linejoin: miter; stroke-linecap: square"/>
   </g>
   <g id="patch_5">
    <path d="M 51.05 303.64 
L 450 303.64 
" style="fill: none; stroke: #000000; stroke-width: 0.8; stroke-linejoin: miter; stroke-linecap: square"/>
   </g>
   <g id="patch_6">
    <path d="M 51.05 37.968 
L 450 37.968 
" style="fill: none; stroke: #000000; stroke-width: 0.8; stroke-linejoin: miter; stroke-linecap: square"/>
   </g>
   <g id="text_16">
    <!-- AMD Ryzen 7 7800X3D 8-Core Processor -->
    <g transform="translate(128.658437 18.530625) scale(0.12 -0.12)">
     <defs>
      <path id="DejaVuSans-41" d="M 2188 4044 
L 1331 1722 
L 3047 1722 
L 2188 4044 
z
M 1831 4666 
L 2547 4666 
L 4325 0 
L 3669 0 
L 3244 1197 
L 1141 1197 
L 716 0 
L 50 0 
L 1831 4666 
z
" transform="scale(0.015625)"/>
      <path id="DejaVuSans-44" d="M 1259 4147 
L 1259 519 
L 2022 519 
Q 2988 519 3436 956 
Q 3884 1394 3884 2338 
Q 3884 3275 3436 3711 
Q 2988 4147 2022 4147 
L 1259 4147 
z
M 628 4666 
L 1925 4666 
Q 3281 4666 3915 4102 
Q 4550 3538 4550 2338 
Q 4550 1131 3912 565 
Q 3275 0 1925 0 
L 628 0 
L 628 4666 
z
" transform="scale(0.015625)"/>
      <path id="DejaVuSans-52" d="M 2841 2188 
Q 3044 2119 3236 1894 
Q 3428 1669 3622 1275 
L 4263 0 
L 3584 0 
L 2988 1197 
Q 2756 1666 2539 1819 
Q 2322 1972 1947 1972 
L 1259 1972 
L 1259 0 
L 628 0 
L 628 4666 
L 2053 4666 
Q 2853 4666 3247 4331 
Q 3641 3997 3641 3322 
Q 3641 2881 3436 2590 
Q 3231 2300 2841 2188 
z
M 1259 4147 
L 1259 2491 
L 2053 2491 
Q 2509 2491 2742 2702 
Q 2975 2913 2975 3322 
Q 2975 3731 2742 3939 
Q 2509 4147 2053 4147 
L 1259 4147 
z
" transform="scale(0.015625)"/>
      <path id="DejaVuSans-79" d="M 2059 -325 
Q 1816 -950 1584 -1140 
Q 1353 -1331 966 -1331 
L 506 -1331 
L 506 -850 
L 844 -850 
Q 1081 -850 1212 -737 
Q 1344 -625 1503 -206 
L 1606 56 
L 191 3500 
L 800 3500 
L 1894 763 
L 2988 3500 
L 3597 3500 
L 2059 -325 
z
" transform="scale(0.015625)"/>
      <path id="DejaVuSans-7a" d="M 353 3500 
L 3084 3500 
L 3084 2975 
L 922 459 
L 3084 459 
L 3084 0 
L 275 0 
L 275 525 
L 2438 3041 
L 353 3041 
L 353 3500 
z
" transform="scale(0.015625)"/>
      <path id="DejaVuSans-65" d="M 3597 1894 
L 3597 1613 
L 953 1613 
Q 991 1019 1311 708 
Q 1631 397 2203 397 
Q 2534 397 2845 478 
Q 3156 559 3463 722 
L 3463 178 
Q 3153 47 2828 -22 
Q 2503 -91 2169 -91 
Q 1331 -91 842 396 
Q 353 884 353 1716 
Q 353 2575 817 3079 
Q 1281 3584 2069 3584 
Q 2775 3584 3186 3129 
Q 3597 2675 3597 1894 
z
M 3022 2063 
Q 3016 2534 2758 2815 
Q 2500 3097 2075 3097 
Q 1594 3097 1305 2825 
Q 1016 2553 972 2059 
L 3022 2063 
z
" transform="scale(0.015625)"/>
      <path id="DejaVuSans-6e" d="M 3513 2113 
L 3513 0 
L 2938 0 
L 2938 2094 
Q 2938 2591 2744 2837 
Q 2550 3084 2163 3084 
Q 1697 3084 1428 2787 
Q 1159 2491 1159 1978 
L 1159 0 
L 581 0 
L 581 3500 
L 1159 3500 
L 1159 2956 
Q 1366 3272 1645 3428 
Q 1925 3584 2291 3584 
Q 2894 3584 3203 3211 
Q 3513 2838 3513 2113 
z
" transform="scale(0.015625)"/>
      <path id="DejaVuSans-58" d="M 403 4666 
L 1081 4666 
L 2241 2931 
L 3406 4666 
L 4084 4666 
L 2584 2425 
L 4184 0 
L 3506 0 
L 2194 1984 
L 872 0 
L 191 0 
L 1856 2491 
L 403 4666 
z
" transform="scale(0.015625)"/>
      <path id="DejaVuSans-2d" d="M 313 2009 
L 1997 2009 
L 1997 1497 
L 313 1497 
L 313 2009 
z
" transform="scale(0.015625)"/>
      <path id="DejaVuSans-43" d="M 4122 4306 
L 4122 3641 
Q 3803 3938 3442 4084 
Q 3081 4231 2675 4231 
Q 1875 4231 1450 3742 
Q 1025 3253 1025 2328 
Q 1025 1406 1450 917 
Q 1875 428 2675 428 
Q 3081 428 3442 575 
Q 3803 722 4122 1019 
L 4122 359 
Q 3791 134 3420 21 
Q 3050 -91 2638 -91 
Q 1578 -91 968 557 
Q 359 1206 359 2328 
Q 359 3453 968 4101 
Q 1578 4750 2638 4750 
Q 3056 4750 3426 4639 
Q 3797 4528 4122 4306 
z
" transform="scale(0.015625)"/>
      <path id="DejaVuSans-50" d="M 1259 4147 
L 1259 2394 
L 2053 2394 
Q 2494 2394 2734 2622 
Q 2975 2850 2975 3272 
Q 2975 3691 2734 3919 
Q 2494 4147 2053 4147 
L 1259 4147 
z
M 628 4666 
L 2053 4666 
Q 2838 4666 3239 4311 
Q 3641 3956 3641 3272 
Q 3641 2581 3239 2228 
Q 2838 1875 2053 1875 
L 1259 1875 
L 1259 0 
L 628 0 
L 628 4666 
z
" transform="scale(0.015625)"/>
      <path id="DejaVuSans-63" d="M 3122 3366 
L 3122 2828 
Q 2878 2963 2633 3030 
Q 2388 3097 2138 3097 
Q 1578 3097 1268 2742 
Q 959 2388 959 1747 
Q 959 1106 1268 751 
Q 1578 397 2138 397 
Q 2388 397 2633 464 
Q 2878 531 3122 666 
L 3122 134 
Q 2881 22 2623 -34 
Q 2366 -91 2075 -91 
Q 1284 -91 818 406 
Q 353 903 353 1747 
Q 353 2603 823 3093 
Q 1294 3584 2113 3584 
Q 2378 3584 2631 3529 
Q 2884 3475 3122 3366 
z
" transform="scale(0.015625)"/>
     </defs>
     <use xlink:href="#DejaVuSans-41"/>
     <use xlink:href="#DejaVuSans-4d" x="68.408203"/>
     <use xlink:href="#DejaVuSans-44" x="154.6875"/>
     <use xlink:href="#DejaVuSans-20" x="231.689453"/>
     <use xlink:href="#DejaVuSans-52" x="263.476562"/>
     <use xlink:href="#DejaVuSans-79" x="327.458984"/>
     <use xlink:href="#DejaVuSans-7a" x="386.638672"/>
     <use xlink:href="#DejaVuSans-65" x="439.128906"/>
     <use xlink:href="#DejaVuSans-6e" x="500.652344"/>
     <use xlink:href="#DejaVuSans-20" x="564.03125"/>
     <use xlink:href="#DejaVuSans-37" x="595.818359"/>
     <use xlink:href="#DejaVuSans-20" x="659.441406"/>
     <use xlink:href="#DejaVuSans-37" x="691.228516"/>
     <use xlink:href="#DejaVuSans-38" x="754.851562"/>
     <use xlink:href="#DejaVuSans-30" x="818.474609"/>
     <use xlink:href="#DejaVuSans-30" x="882.097656"/>
     <use xlink:href="#DejaVuSans-58" x="945.720703"/>
     <use xlink:href="#DejaVuSans-33" x="1014.226562"/>
     <use xlink:href="#DejaVuSans-44" x="1077.849609"/>
     <use xlink:href="#DejaVuSans-20" x="1154.851562"/>
     <use xlink:href="#DejaVuSans-38" x="1186.638672"/>
     <use xlink:href="#DejaVuSans-2d" x="1250.261719"/>
     <use xlink:href="#DejaVuSans-43" x="1286.345703"/>
     <use xlink:href="#DejaVuSans-6f" x="1356.169922"/>
     <use xlink:href="#DejaVuSans-72" x="1417.351562"/>
     <use xlink:href="#DejaVuSans-65" x="1456.214844"/>
     <use xlink:href="#DejaVuSans-20" x="1517.738281"/>
     <use xlink:href="#DejaVuSans-50" x="1549.525391"/>
     <use xlink:href="#DejaVuSans-72" x="1608.078125"/>
     <use xlink:href="#DejaVuSans-6f" x="1646.941406"/>
     <use xlink:href="#DejaVuSans-63" x="1708.123047"/>
     <use xlink:href="#DejaVuSans-65" x="1763.103516"/>
     <use xlink:href="#DejaVuSans-73" x="1824.626953"/>
     <use xlink:href="#DejaVuSans-73" x="1876.726562"/>
     <use xlink:href="#DejaVuSans-6f" x="1928.826172"/>
     <use xlink:href="#DejaVuSans-72" x="1990.007812"/>
    </g>
    <!-- Convolution (kernel size = 245) -->
    <g transform="translate(155.782188 31.968) scale(0.12 -0.12)">
     <defs>
      <path id="DejaVuSans-76" d="M 191 3500 
L 800 3500 
L 1894 563 
L 2988 3500 
L 3597 3500 
L 2284 0 
L 1503 0 
L 191 3500 
z
" transform="scale(0.015625)"/>
      <path id="DejaVuSans-6c" d="M 603 4863 
L 1178 4863 
L 1178 0 
L 603 0 
L 603 4863 
z
" transform="scale(0.015625)"/>
      <path id="DejaVuSans-69" d="M 603 3500 
L 1178 3500 
L 1178 0 
L 603 0 
L 603 3500 
z
M 603 4863 
L 1178 4863 
L 1178 4134 
L 603 4134 
L 603 4863 
z
" transform="scale(0.015625)"/>
      <path id="DejaVuSans-6b" d="M 581 4863 
L 1159 4863 
L 1159 1991 
L 2875 3500 
L 3609 3500 
L 1753 1863 
L 3688 0 
L 2938 0 
L 1159 1709 
L 1159 0 
L 581 0 
L 581 4863 
z
" transform="scale(0.015625)"/>
      <path id="DejaVuSans-3d" d="M 678 2906 
L 4684 2906 
L 4684 2381 
L 678 2381 
L 678 2906 
z
M 678 1631 
L 4684 1631 
L 4684 1100 
L 678 1100 
L 678 1631 
z
" transform="scale(0.015625)"/>
     </defs>
     <use xlink:href="#DejaVuSans-43"/>
     <use xlink:href="#DejaVuSans-6f" x="69.824219"/>
     <use xlink:href="#DejaVuSans-6e" x="131.005859"/>
     <use xlink:href="#DejaVuSans-76" x="194.384766"/>
     <use xlink:href="#DejaVuSans-6f" x="253.564453"/>
     <use xlink:href="#DejaVuSans-6c" x="314.746094"/>
     <use xlink:href="#DejaVuSans-75" x="342.529297"/>
     <use xlink:href="#DejaVuSans-74" x="405.908203"/>
     <use xlink:href="#DejaVuSans-69" x="445.117188"/>
     <use xlink:href="#DejaVuSans-6f" x="472.900391"/>
     <use xlink:href="#DejaVuSans-6e" x="534.082031"/>
     <use xlink:href="#DejaVuSans-20" x="597.460938"/>
     <use xlink:href="#DejaVuSans-28" x="629.248047"/>
     <use xlink:href="#DejaVuSans-6b" x="668.261719"/>
     <use xlink:href="#DejaVuSans-65" x="722.546875"/>
     <use xlink:href="#DejaVuSans-72" x="784.070312"/>
     <use xlink:href="#DejaVuSans-6e" x="823.433594"/>
     <use xlink:href="#DejaVuSans-65" x="886.8125"/>
     <use xlink:href="#DejaVuSans-6c" x="948.335938"/>
     <use xlink:href="#DejaVuSans-20" x="976.119141"/>
     <use xlink:href="#DejaVuSans-73" x="1007.90625"/>
     <use xlink:href="#DejaVuSans-69" x="1060.005859"/>
     <use xlink:href="#DejaVuSans-7a" x="1087.789062"/>
     <use xlink:href="#DejaVuSans-65" x="1140.279297"/>
     <use xlink:href="#DejaVuSans-20" x="1201.802734"/>
     <use xlink:href="#DejaVuSans-3d" x="1233.589844"/>
     <use xlink:href="#DejaVuSans-20" x="1317.378906"/>
     <use xlink:href="#DejaVuSans-32" x="1349.166016"/>
     <use xlink:href="#DejaVuSans-34" x="1412.789062"/>
     <use xlink:href="#DejaVuSans-35" x="1476.412109"/>
     <use xlink:href="#DejaVuSans-29" x="1540.035156"/>
    </g>
   </g>
   <g id="legend_1">
    <g id="patch_7">
     <path d="M 191.972656 251.46175 
L 309.077344 251.46175 
Q 311.077344 251.46175 311.077344 249.46175 
L 311.077344 44.968 
Q 311.077344 42.968 309.077344 42.968 
L 191.972656 42.968 
Q 189.972656 42.968 189.972656 44.968 
L 189.972656 249.46175 
Q 189.972656 251.46175 191.972656 251.46175 
z
" style="fill: #ffffff; opacity: 0.8; stroke: #cccccc; stroke-linejoin: miter"/>
    </g>
    <g id="PathCollection_15">
     <g>
      <use xlink:href="#m738175e734" x="203.972656" y="51.941437" style="fill: #7f7f7f; stroke: #7f7f7f; stroke-width: 1.5"/>
     </g>
    </g>
    <g id="text_17">
     <!-- Intel IPP (FFT) -->
     <g transform="translate(221.972656 54.566437) scale(0.1 -0.1)">
      <defs>
       <path id="DejaVuSans-49" d="M 628 4666 
L 1259 4666 
L 1259 0 
L 628 0 
L 628 4666 
z
" transform="scale(0.015625)"/>
       <path id="DejaVuSans-46" d="M 628 4666 
L 3309 4666 
L 3309 4134 
L 1259 4134 
L 1259 2759 
L 3109 2759 
L 3109 2228 
L 1259 2228 
L 1259 0 
L 628 0 
L 628 4666 
z
" transform="scale(0.015625)"/>
      </defs>
      <use xlink:href="#DejaVuSans-49"/>
      <use xlink:href="#DejaVuSans-6e" x="29.492188"/>
      <use xlink:href="#DejaVuSans-74" x="92.871094"/>
      <use xlink:href="#DejaVuSans-65" x="132.080078"/>
      <use xlink:href="#DejaVuSans-6c" x="193.603516"/>
      <use xlink:href="#DejaVuSans-20" x="221.386719"/>
      <use xlink:href="#DejaVuSans-49" x="253.173828"/>
      <use xlink:href="#DejaVuSans-50" x="282.666016"/>
      <use xlink:href="#DejaVuSans-50" x="342.96875"/>
      <use xlink:href="#DejaVuSans-20" x="403.271484"/>
      <use xlink:href="#DejaVuSans-28" x="435.058594"/>
      <use xlink:href="#DejaVuSans-46" x="474.072266"/>
      <use xlink:href="#DejaVuSans-46" x="531.591797"/>
      <use xlink:href="#DejaVuSans-54" x="587.361328"/>
      <use xlink:href="#DejaVuSans-29" x="648.445312"/>
     </g>
    </g>
    <g id="PathCollection_16">
     <g>
      <use xlink:href="#m4a1d4602db" x="203.972656" y="66.619562" style="fill: #8c564b; stroke: #8c564b; stroke-width: 1.5"/>
     </g>
    </g>
    <g id="text_18">
     <!-- fftconv -->
     <g transform="translate(221.972656 69.244562) scale(0.1 -0.1)">
      <defs>
       <path id="DejaVuSans-66" d="M 2375 4863 
L 2375 4384 
L 1825 4384 
Q 1516 4384 1395 4259 
Q 1275 4134 1275 3809 
L 1275 3500 
L 2222 3500 
L 2222 3053 
L 1275 3053 
L 1275 0 
L 697 0 
L 697 3053 
L 147 3053 
L 147 3500 
L 697 3500 
L 697 3744 
Q 697 4328 969 4595 
Q 1241 4863 1831 4863 
L 2375 4863 
z
" transform="scale(0.015625)"/>
      </defs>
      <use xlink:href="#DejaVuSans-66"/>
      <use xlink:href="#DejaVuSans-66" x="35.205078"/>
      <use xlink:href="#DejaVuSans-74" x="68.660156"/>
      <use xlink:href="#DejaVuSans-63" x="107.869141"/>
      <use xlink:href="#DejaVuSans-6f" x="162.849609"/>
      <use xlink:href="#DejaVuSans-6e" x="224.03125"/>
      <use xlink:href="#DejaVuSans-76" x="287.410156"/>
     </g>
    </g>
    <g id="PathCollection_17">
     <g>
      <use xlink:href="#mdc419e760e" x="203.972656" y="81.297687" style="fill: #9467bd; stroke: #9467bd; stroke-width: 1.5"/>
     </g>
    </g>
    <g id="text_19">
     <!-- OpenCV -->
     <g transform="translate(221.972656 83.922687) scale(0.1 -0.1)">
      <defs>
       <path id="DejaVuSans-4f" d="M 2522 4238 
Q 1834 4238 1429 3725 
Q 1025 3213 1025 2328 
Q 1025 1447 1429 934 
Q 1834 422 2522 422 
Q 3209 422 3611 934 
Q 4013 1447 4013 2328 
Q 4013 3213 3611 3725 
Q 3209 4238 2522 4238 
z
M 2522 4750 
Q 3503 4750 4090 4092 
Q 4678 3434 4678 2328 
Q 4678 1225 4090 567 
Q 3503 -91 2522 -91 
Q 1538 -91 948 565 
Q 359 1222 359 2328 
Q 359 3434 948 4092 
Q 1538 4750 2522 4750 
z
" transform="scale(0.015625)"/>
       <path id="DejaVuSans-56" d="M 1831 0 
L 50 4666 
L 709 4666 
L 2188 738 
L 3669 4666 
L 4325 4666 
L 2547 0 
L 1831 0 
z
" transform="scale(0.015625)"/>
      </defs>
      <use xlink:href="#DejaVuSans-4f"/>
      <use xlink:href="#DejaVuSans-70" x="78.710938"/>
      <use xlink:href="#DejaVuSans-65" x="142.1875"/>
      <use xlink:href="#DejaVuSans-6e" x="203.710938"/>
      <use xlink:href="#DejaVuSans-43" x="267.089844"/>
      <use xlink:href="#DejaVuSans-56" x="336.914062"/>
     </g>
    </g>
    <g id="PathCollection_18">
     <g>
      <use xlink:href="#me71588012c" x="203.972656" y="95.975812" style="fill: #e377c2; stroke: #e377c2; stroke-width: 1.5"/>
     </g>
    </g>
    <g id="text_20">
     <!-- Intel IPP (direct) -->
     <g transform="translate(221.972656 98.600812) scale(0.1 -0.1)">
      <defs>
       <path id="DejaVuSans-64" d="M 2906 2969 
L 2906 4863 
L 3481 4863 
L 3481 0 
L 2906 0 
L 2906 525 
Q 2725 213 2448 61 
Q 2172 -91 1784 -91 
Q 1150 -91 751 415 
Q 353 922 353 1747 
Q 353 2572 751 3078 
Q 1150 3584 1784 3584 
Q 2172 3584 2448 3432 
Q 2725 3281 2906 2969 
z
M 947 1747 
Q 947 1113 1208 752 
Q 1469 391 1925 391 
Q 2381 391 2643 752 
Q 2906 1113 2906 1747 
Q 2906 2381 2643 2742 
Q 2381 3103 1925 3103 
Q 1469 3103 1208 2742 
Q 947 2381 947 1747 
z
" transform="scale(0.015625)"/>
      </defs>
      <use xlink:href="#DejaVuSans-49"/>
      <use xlink:href="#DejaVuSans-6e" x="29.492188"/>
      <use xlink:href="#DejaVuSans-74" x="92.871094"/>
      <use xlink:href="#DejaVuSans-65" x="132.080078"/>
      <use xlink:href="#DejaVuSans-6c" x="193.603516"/>
      <use xlink:href="#DejaVuSans-20" x="221.386719"/>
      <use xlink:href="#DejaVuSans-49" x="253.173828"/>
      <use xlink:href="#DejaVuSans-50" x="282.666016"/>
      <use xlink:href="#DejaVuSans-50" x="342.96875"/>
      <use xlink:href="#DejaVuSans-20" x="403.271484"/>
      <use xlink:href="#DejaVuSans-28" x="435.058594"/>
      <use xlink:href="#DejaVuSans-64" x="474.072266"/>
      <use xlink:href="#DejaVuSans-69" x="537.548828"/>
      <use xlink:href="#DejaVuSans-72" x="565.332031"/>
      <use xlink:href="#DejaVuSans-65" x="604.195312"/>
      <use xlink:href="#DejaVuSans-63" x="665.71875"/>
      <use xlink:href="#DejaVuSans-74" x="720.699219"/>
      <use xlink:href="#DejaVuSans-29" x="759.908203"/>
     </g>
    </g>
    <g id="PathCollection_19">
     <g>
      <use xlink:href="#m8159f7ab48" x="203.972656" y="110.653937" style="fill: #ff7f0e; stroke: #ff7f0e; stroke-width: 1.5"/>
     </g>
    </g>
    <g id="text_21">
     <!-- Scipy 1.12.0 (fft) -->
     <g transform="translate(221.972656 113.278937) scale(0.1 -0.1)">
      <defs>
       <path id="DejaVuSans-2e" d="M 684 794 
L 1344 794 
L 1344 0 
L 684 0 
L 684 794 
z
" transform="scale(0.015625)"/>
      </defs>
      <use xlink:href="#DejaVuSans-53"/>
      <use xlink:href="#DejaVuSans-63" x="63.476562"/>
      <use xlink:href="#DejaVuSans-69" x="118.457031"/>
      <use xlink:href="#DejaVuSans-70" x="146.240234"/>
      <use xlink:href="#DejaVuSans-79" x="209.716797"/>
      <use xlink:href="#DejaVuSans-20" x="268.896484"/>
      <use xlink:href="#DejaVuSans-31" x="300.683594"/>
      <use xlink:href="#DejaVuSans-2e" x="364.306641"/>
      <use xlink:href="#DejaVuSans-31" x="396.09375"/>
      <use xlink:href="#DejaVuSans-32" x="459.716797"/>
      <use xlink:href="#DejaVuSans-2e" x="523.339844"/>
      <use xlink:href="#DejaVuSans-30" x="555.126953"/>
      <use xlink:href="#DejaVuSans-20" x="618.75"/>
      <use xlink:href="#DejaVuSans-28" x="650.537109"/>
      <use xlink:href="#DejaVuSans-66" x="689.550781"/>
      <use xlink:href="#DejaVuSans-66" x="724.755859"/>
      <use xlink:href="#DejaVuSans-74" x="758.210938"/>
      <use xlink:href="#DejaVuSans-29" x="797.419922"/>
     </g>
    </g>
    <g id="PathCollection_20">
     <g>
      <use xlink:href="#m634eb423a9" x="203.972656" y="125.332062" style="fill: #2ca02c; stroke: #2ca02c; stroke-width: 1.5"/>
     </g>
    </g>
    <g id="text_22">
     <!-- Eigen3 -->
     <g transform="translate(221.972656 127.957062) scale(0.1 -0.1)">
      <defs>
       <path id="DejaVuSans-45" d="M 628 4666 
L 3578 4666 
L 3578 4134 
L 1259 4134 
L 1259 2753 
L 3481 2753 
L 3481 2222 
L 1259 2222 
L 1259 531 
L 3634 531 
L 3634 0 
L 628 0 
L 628 4666 
z
" transform="scale(0.015625)"/>
      </defs>
      <use xlink:href="#DejaVuSans-45"/>
      <use xlink:href="#DejaVuSans-69" x="63.183594"/>
      <use xlink:href="#DejaVuSans-67" x="90.966797"/>
      <use xlink:href="#DejaVuSans-65" x="154.443359"/>
      <use xlink:href="#DejaVuSans-6e" x="215.966797"/>
      <use xlink:href="#DejaVuSans-33" x="279.345703"/>
     </g>
    </g>
    <g id="PathCollection_21">
     <g>
      <use xlink:href="#m634eb423a9" x="203.972656" y="140.010187" style="fill: #2ca02c; stroke: #2ca02c; stroke-width: 1.5"/>
     </g>
    </g>
    <g id="text_23">
     <!-- Scipy 1.12.0 (oa) -->
     <g transform="translate(221.972656 142.635187) scale(0.1 -0.1)">
      <defs>
       <path id="DejaVuSans-61" d="M 2194 1759 
Q 1497 1759 1228 1600 
Q 959 1441 959 1056 
Q 959 750 1161 570 
Q 1363 391 1709 391 
Q 2188 391 2477 730 
Q 2766 1069 2766 1631 
L 2766 1759 
L 2194 1759 
z
M 3341 1997 
L 3341 0 
L 2766 0 
L 2766 531 
Q 2569 213 2275 61 
Q 1981 -91 1556 -91 
Q 1019 -91 701 211 
Q 384 513 384 1019 
Q 384 1609 779 1909 
Q 1175 2209 1959 2209 
L 2766 2209 
L 2766 2266 
Q 2766 2663 2505 2880 
Q 2244 3097 1772 3097 
Q 1472 3097 1187 3025 
Q 903 2953 641 2809 
L 641 3341 
Q 956 3463 1253 3523 
Q 1550 3584 1831 3584 
Q 2591 3584 2966 3190 
Q 3341 2797 3341 1997 
z
" transform="scale(0.015625)"/>
      </defs>
      <use xlink:href="#DejaVuSans-53"/>
      <use xlink:href="#DejaVuSans-63" x="63.476562"/>
      <use xlink:href="#DejaVuSans-69" x="118.457031"/>
      <use xlink:href="#DejaVuSans-70" x="146.240234"/>
      <use xlink:href="#DejaVuSans-79" x="209.716797"/>
      <use xlink:href="#DejaVuSans-20" x="268.896484"/>
      <use xlink:href="#DejaVuSans-31" x="300.683594"/>
      <use xlink:href="#DejaVuSans-2e" x="364.306641"/>
      <use xlink:href="#DejaVuSans-31" x="396.09375"/>
      <use xlink:href="#DejaVuSans-32" x="459.716797"/>
      <use xlink:href="#DejaVuSans-2e" x="523.339844"/>
      <use xlink:href="#DejaVuSans-30" x="555.126953"/>
      <use xlink:href="#DejaVuSans-20" x="618.75"/>
      <use xlink:href="#DejaVuSans-28" x="650.537109"/>
      <use xlink:href="#DejaVuSans-6f" x="689.550781"/>
      <use xlink:href="#DejaVuSans-61" x="750.732422"/>
      <use xlink:href="#DejaVuSans-29" x="812.011719"/>
     </g>
    </g>
    <g id="PathCollection_22">
     <g>
      <use xlink:href="#m2ac37385c6" x="203.972656" y="154.688312" style="fill: #d62728; stroke: #d62728; stroke-width: 1.5"/>
     </g>
    </g>
    <g id="text_24">
     <!-- PyTorch 2.5.1 -->
     <g transform="translate(221.972656 157.313312) scale(0.1 -0.1)">
      <use xlink:href="#DejaVuSans-50"/>
      <use xlink:href="#DejaVuSans-79" x="60.302734"/>
      <use xlink:href="#DejaVuSans-54" x="119.482422"/>
      <use xlink:href="#DejaVuSans-6f" x="163.566406"/>
      <use xlink:href="#DejaVuSans-72" x="224.748047"/>
      <use xlink:href="#DejaVuSans-63" x="263.611328"/>
      <use xlink:href="#DejaVuSans-68" x="318.591797"/>
      <use xlink:href="#DejaVuSans-20" x="381.970703"/>
      <use xlink:href="#DejaVuSans-32" x="413.757812"/>
      <use xlink:href="#DejaVuSans-2e" x="477.380859"/>
      <use xlink:href="#DejaVuSans-35" x="509.167969"/>
      <use xlink:href="#DejaVuSans-2e" x="572.791016"/>
      <use xlink:href="#DejaVuSans-31" x="604.578125"/>
     </g>
    </g>
    <g id="PathCollection_23">
     <g>
      <use xlink:href="#m94526fd739" x="203.972656" y="169.366437" style="fill: #17becf; stroke: #17becf; stroke-width: 1.5"/>
     </g>
    </g>
    <g id="text_25">
     <!-- Numpy 1.26.4 -->
     <g transform="translate(221.972656 171.991437) scale(0.1 -0.1)">
      <defs>
       <path id="DejaVuSans-6d" d="M 3328 2828 
Q 3544 3216 3844 3400 
Q 4144 3584 4550 3584 
Q 5097 3584 5394 3201 
Q 5691 2819 5691 2113 
L 5691 0 
L 5113 0 
L 5113 2094 
Q 5113 2597 4934 2840 
Q 4756 3084 4391 3084 
Q 3944 3084 3684 2787 
Q 3425 2491 3425 1978 
L 3425 0 
L 2847 0 
L 2847 2094 
Q 2847 2600 2669 2842 
Q 2491 3084 2119 3084 
Q 1678 3084 1418 2786 
Q 1159 2488 1159 1978 
L 1159 0 
L 581 0 
L 581 3500 
L 1159 3500 
L 1159 2956 
Q 1356 3278 1631 3431 
Q 1906 3584 2284 3584 
Q 2666 3584 2933 3390 
Q 3200 3197 3328 2828 
z
" transform="scale(0.015625)"/>
      </defs>
      <use xlink:href="#DejaVuSans-4e"/>
      <use xlink:href="#DejaVuSans-75" x="74.804688"/>
      <use xlink:href="#DejaVuSans-6d" x="138.183594"/>
      <use xlink:href="#DejaVuSans-70" x="235.595703"/>
      <use xlink:href="#DejaVuSans-79" x="299.072266"/>
      <use xlink:href="#DejaVuSans-20" x="358.251953"/>
      <use xlink:href="#DejaVuSans-31" x="390.039062"/>
      <use xlink:href="#DejaVuSans-2e" x="453.662109"/>
      <use xlink:href="#DejaVuSans-32" x="485.449219"/>
      <use xlink:href="#DejaVuSans-36" x="549.072266"/>
      <use xlink:href="#DejaVuSans-2e" x="612.695312"/>
      <use xlink:href="#DejaVuSans-34" x="644.482422"/>
     </g>
    </g>
    <g id="PathCollection_24">
     <g>
      <use xlink:href="#m72524fc5e4" x="203.972656" y="184.044562" style="fill: #1f77b4; stroke: #1f77b4; stroke-width: 1.5"/>
     </g>
    </g>
    <g id="text_26">
     <!-- Scipy 1.12.0 -->
     <g transform="translate(221.972656 186.669562) scale(0.1 -0.1)">
      <use xlink:href="#DejaVuSans-53"/>
      <use xlink:href="#DejaVuSans-63" x="63.476562"/>
      <use xlink:href="#DejaVuSans-69" x="118.457031"/>
      <use xlink:href="#DejaVuSans-70" x="146.240234"/>
      <use xlink:href="#DejaVuSans-79" x="209.716797"/>
      <use xlink:href="#DejaVuSans-20" x="268.896484"/>
      <use xlink:href="#DejaVuSans-31" x="300.683594"/>
      <use xlink:href="#DejaVuSans-2e" x="364.306641"/>
      <use xlink:href="#DejaVuSans-31" x="396.09375"/>
      <use xlink:href="#DejaVuSans-32" x="459.716797"/>
      <use xlink:href="#DejaVuSans-2e" x="523.339844"/>
      <use xlink:href="#DejaVuSans-30" x="555.126953"/>
     </g>
    </g>
    <g id="PathCollection_25">
     <g>
      <use xlink:href="#m72524fc5e4" x="203.972656" y="198.722687" style="fill: #1f77b4; stroke: #1f77b4; stroke-width: 1.5"/>
     </g>
    </g>
    <g id="text_27">
     <!-- Armadillo -->
     <g transform="translate(221.972656 201.347687) scale(0.1 -0.1)">
      <use xlink:href="#DejaVuSans-41"/>
      <use xlink:href="#DejaVuSans-72" x="68.408203"/>
      <use xlink:href="#DejaVuSans-6d" x="107.771484"/>
      <use xlink:href="#DejaVuSans-61" x="205.183594"/>
      <use xlink:href="#DejaVuSans-64" x="266.462891"/>
      <use xlink:href="#DejaVuSans-69" x="329.939453"/>
      <use xlink:href="#DejaVuSans-6c" x="357.722656"/>
      <use xlink:href="#DejaVuSans-6c" x="385.505859"/>
      <use xlink:href="#DejaVuSans-6f" x="413.289062"/>
     </g>
    </g>
    <g id="PathCollection_26">
     <g>
      <use xlink:href="#m8159f7ab48" x="203.972656" y="213.400812" style="fill: #ff7f0e; stroke: #ff7f0e; stroke-width: 1.5"/>
     </g>
    </g>
    <g id="text_28">
     <!-- BLAS (im2col) -->
     <g transform="translate(221.972656 216.025812) scale(0.1 -0.1)">
      <defs>
       <path id="DejaVuSans-42" d="M 1259 2228 
L 1259 519 
L 2272 519 
Q 2781 519 3026 730 
Q 3272 941 3272 1375 
Q 3272 1813 3026 2020 
Q 2781 2228 2272 2228 
L 1259 2228 
z
M 1259 4147 
L 1259 2741 
L 2194 2741 
Q 2656 2741 2882 2914 
Q 3109 3088 3109 3444 
Q 3109 3797 2882 3972 
Q 2656 4147 2194 4147 
L 1259 4147 
z
M 628 4666 
L 2241 4666 
Q 2963 4666 3353 4366 
Q 3744 4066 3744 3513 
Q 3744 3084 3544 2831 
Q 3344 2578 2956 2516 
Q 3422 2416 3680 2098 
Q 3938 1781 3938 1306 
Q 3938 681 3513 340 
Q 3088 0 2303 0 
L 628 0 
L 628 4666 
z
" transform="scale(0.015625)"/>
       <path id="DejaVuSans-4c" d="M 628 4666 
L 1259 4666 
L 1259 531 
L 3531 531 
L 3531 0 
L 628 0 
L 628 4666 
z
" transform="scale(0.015625)"/>
      </defs>
      <use xlink:href="#DejaVuSans-42"/>
      <use xlink:href="#DejaVuSans-4c" x="68.603516"/>
      <use xlink:href="#DejaVuSans-41" x="126.566406"/>
      <use xlink:href="#DejaVuSans-53" x="194.974609"/>
      <use xlink:href="#DejaVuSans-20" x="258.451172"/>
      <use xlink:href="#DejaVuSans-28" x="290.238281"/>
      <use xlink:href="#DejaVuSans-69" x="329.251953"/>
      <use xlink:href="#DejaVuSans-6d" x="357.035156"/>
      <use xlink:href="#DejaVuSans-32" x="454.447266"/>
      <use xlink:href="#DejaVuSans-63" x="518.070312"/>
      <use xlink:href="#DejaVuSans-6f" x="573.050781"/>
      <use xlink:href="#DejaVuSans-6c" x="634.232422"/>
      <use xlink:href="#DejaVuSans-29" x="662.015625"/>
     </g>
    </g>
    <g id="PathCollection_27">
     <g>
      <use xlink:href="#m2ac37385c6" x="203.972656" y="228.078937" style="fill: #d62728; stroke: #d62728; stroke-width: 1.5"/>
     </g>
    </g>
    <g id="text_29">
     <!-- KFR -->
     <g transform="translate(221.972656 230.703937) scale(0.1 -0.1)">
      <defs>
       <path id="DejaVuSans-4b" d="M 628 4666 
L 1259 4666 
L 1259 2694 
L 3353 4666 
L 4166 4666 
L 1850 2491 
L 4331 0 
L 3500 0 
L 1259 2247 
L 1259 0 
L 628 0 
L 628 4666 
z
" transform="scale(0.015625)"/>
      </defs>
      <use xlink:href="#DejaVuSans-4b"/>
      <use xlink:href="#DejaVuSans-46" x="65.576172"/>
      <use xlink:href="#DejaVuSans-52" x="123.095703"/>
     </g>
    </g>
    <g id="PathCollection_28">
     <g>
      <use xlink:href="#m031279bf4d" x="203.972656" y="242.757062" style="fill: #bcbd22; stroke: #bcbd22; stroke-width: 1.5"/>
     </g>
    </g>
    <g id="text_30">
     <!-- naive -->
     <g transform="translate(221.972656 245.382062) scale(0.1 -0.1)">
      <use xlink:href="#DejaVuSans-6e"/>
      <use xlink:href="#DejaVuSans-61" x="63.378906"/>
      <use xlink:href="#DejaVuSans-69" x="124.658203"/>
      <use xlink:href="#DejaVuSans-76" x="152.441406"/>
      <use xlink:href="#DejaVuSans-65" x="211.621094"/>
     </g>
    </g>
   </g>
  </g>
 </g>
 <defs>
  <clipPath id="pb4f8f3f5cf">
   <rect x="51.05" y="37.968" width="398.95" height="265.672"/>
  </clipPath>
 </defs>
</svg>
